<svg width="46" height="90" viewBox="0 0 46 90" fill="none" xmlns="http://www.w3.org/2000/svg">
<path d="M23 0C36.3333 20 36.3333 36.6667 23 50C9.66667 36.6667 9.66667 20 23 0Z" fill="white"/>
<path d="M23 50C43 56.6667 49.6667 70 43 90C29.6667 76.6667 23 63.3333 23 50Z" fill="white"/>
<path d="M23 50C3 56.6667 -3.66667 70 3 90C16.3333 76.6667 23 63.3333 23 50Z" fill="white"/>
<path d="M23 55C25.7614 55 28 52.7614 28 50C28 47.2386 25.7614 45 23 45C20.2386 45 18 47.2386 18 50C18 52.7614 20.2386 55 23 55Z" fill="white"/>
</svg>
