<svg width="40" height="38" viewBox="0 0 40 38" fill="none" xmlns="http://www.w3.org/2000/svg">
<path d="M16.083 14.997C17.1876 14.997 18.083 14.1016 18.083 12.997C18.083 11.8924 17.1876 10.997 16.083 10.997C14.9784 10.997 14.083 11.8924 14.083 12.997C14.083 14.1016 14.9784 14.997 16.083 14.997Z" fill="#6A9A4A"/>
<path d="M24.002 14.997C25.1066 14.997 26.002 14.1016 26.002 12.997C26.002 11.8924 25.1066 10.997 24.002 10.997C22.8974 10.997 22.002 11.8924 22.002 12.997C22.002 14.1016 22.8974 14.997 24.002 14.997Z" fill="#6A9A4A"/>
<path d="M20.083 26.913C24.448 26.913 28 23.363 28 19H24C24 21.157 22.243 22.913 20.083 22.913C17.923 22.913 16.166 21.157 16.166 19H12.166C12.166 23.363 15.718 26.913 20.083 26.913Z" fill="#6A9A4A"/>
<path d="M37.286 13.029C35.122 5.517 28.199 0 20 0C11.801 0 4.878 5.517 2.714 13.029C1.199 13.177 0 14.448 0 16V20C0 21.65 1.35 23 3 23C4.65 23 6 21.65 6 20V17.998C6.001 10.279 12.281 4 20 4C27.72 4 34 10.28 34 18C34 25.72 27.72 32 20 32H17.986C16.336 32 14.986 33.35 14.986 35C14.986 36.65 16.336 38 17.986 38H22C23.552 38 24.824 36.801 24.971 35.286C30.902 33.577 35.577 28.902 37.286 22.971C38.801 22.824 40 21.552 40 20V16C40 14.448 38.801 13.176 37.286 13.029Z" fill="#6A9A4A"/>
</svg>
