<svg width="44" height="38" viewBox="0 0 44 38" fill="none" xmlns="http://www.w3.org/2000/svg">
<path d="M34 8H20V12H34V8Z" fill="#6A9A4A"/>
<path d="M30 16H20V20H30V16Z" fill="#6A9A4A"/>
<path d="M40 0H16C13.8 0 12 1.8 12 4V8C5.4 8 0 13.4 0 20V32H4C4 35.314 6.686 38 10 38C13.314 38 16 35.314 16 32H24C24 35.314 26.686 38 30 38C33.314 38 36 35.314 36 32H40C42.2 32 44 30.2 44 28V4C44 1.8 42.2 0 40 0ZM10 34C8.897 34 8 33.103 8 32C8 30.897 8.897 30 10 30C11.103 30 12 30.897 12 32C12 33.103 11.103 34 10 34ZM12 26.349C11.374 26.127 10.702 26 10 26C8.225 26 6.635 26.775 5.537 28H4V22H12V26.349ZM12 18H4.263C5.155 14.555 8.28 12 12 12V18ZM30 34C28.897 34 28 33.103 28 32C28 30.897 28.897 30 30 30C31.103 30 32 30.897 32 32C32 33.103 31.103 34 30 34ZM40 28H34.463C33.364 26.775 31.775 26 30 26C28.225 26 26.635 26.775 25.537 28H16V4H40V28Z" fill="#6A9A4A"/>
</svg>
