<svg width="40" height="40" viewBox="0 0 40 40" fill="none" xmlns="http://www.w3.org/2000/svg">
<path d="M8 40H12C12 35.589 15.589 32 20 32V28C15.589 28 12 24.411 12 20H8C8 24.411 4.411 28 0 28V32C4.411 32 8 35.589 8 40ZM10 26.627C10.888 27.963 12.037 29.111 13.373 30C12.037 30.889 10.888 32.037 10 33.373C9.112 32.037 7.963 30.889 6.627 30C7.963 29.111 9.112 27.963 10 26.627Z" fill="#6A9A4A"/>
<path d="M35.999 28H31.999V32H28V36H31.999V40H35.999V36H40V32H35.999V28Z" fill="#6A9A4A"/>
<path d="M32 0H28C28 4.411 24.411 8 20 8V12C24.411 12 28 15.589 28 20H32C32 15.589 35.589 12 40 12V8C35.589 8 32 4.411 32 0ZM30 13.373C29.112 12.037 27.963 10.889 26.627 10C27.963 9.111 29.112 7.963 30 6.627C30.888 7.963 32.037 9.111 33.373 10C32.037 10.889 30.888 12.037 30 13.373Z" fill="#6A9A4A"/>
<path d="M4.001 12H8.001V8H12V4H8.001V0H4.001V4H0V8H4.001V12Z" fill="#6A9A4A"/>
</svg>
