<svg width="40" height="40" viewBox="0 0 40 40" fill="none" xmlns="http://www.w3.org/2000/svg">
<path d="M20 0C8.954 0 0 8.954 0 20C0 31.046 8.954 40 20 40C31.046 40 40 31.046 40 20C40 8.954 31.046 0 20 0ZM27.96 18C27.752 12.775 26.737 8.154 25.234 4.897C30.883 6.861 35.095 11.895 35.861 18H27.96ZM20 35.9C18.787 34.945 16.392 30.164 16.046 22H23.954C23.608 30.164 21.213 34.945 20 35.9ZM16.046 18C16.392 9.836 18.787 5.055 20 4.1C21.213 5.055 23.608 9.836 23.954 18H16.046ZM14.766 4.897C13.264 8.154 12.248 12.775 12.04 18H4.139C4.905 11.896 9.117 6.861 14.766 4.897ZM12.04 22C12.248 27.225 13.263 31.846 14.766 35.103C9.117 33.139 4.905 28.104 4.139 22H12.04ZM25.234 35.103C26.736 31.846 27.752 27.225 27.96 22H35.862C35.095 28.104 30.883 33.139 25.234 35.103Z" fill="#6A9A4A"/>
</svg>
